<?xml version="1.0" standalone="no"?>
<!DOCTYPE svg PUBLIC "-//W3C//DTD SVG 1.1//EN" "http://www.w3.org/Graphics/SVG/1.1/DTD/svg11.dtd" >
<!--
2013-9-30: Created.
-->
<svg>
<metadata>
Created by iconfont
</metadata>
<defs>

<font id="iconfont" horiz-adv-x="1024" >
  <font-face
    font-family="iconfont"
    font-weight="500"
    font-stretch="normal"
    units-per-em="1024"
    ascent="896"
    descent="-128"
  />
    <missing-glyph />
    
    <glyph glyph-name="shezhi-copy" unicode="&#942098;" d="M891.392 384c0 39.762 24.146 74.721 61.507 89.062l19.128 7.342-5.059 19.85a466.831 466.831 0 0 1-50.995 123.219l-10.455 17.612-18.714-8.32a95.933 95.933 0 0 0-39.219-8.325 94.326 94.326 0 0 0-67.24 27.904c-28.12 28.12-35.769 69.899-19.482 106.435l8.356 18.75-17.664 10.454a469.356 469.356 0 0 1-123.29 50.985l-19.814 5.049-7.363-19.077c-14.433-37.392-49.403-61.553-89.078-61.553-39.757 0-74.716 24.146-89.062 61.517l-7.342 19.118-19.85-5.054a466.586 466.586 0 0 1-123.218-51l-17.613-10.455 8.32-18.714c16.266-36.567 8.617-78.356-19.477-106.455-17.945-17.95-41.866-27.837-67.348-27.837-13.589 0-26.757 2.78-39.132 8.269l-18.668 8.279-10.46-17.547a464.138 464.138 0 0 1-51.113-123.253l-5.043-19.815 19.077-7.362c37.376-14.434 61.532-49.398 61.532-89.078 0-39.757-24.146-74.716-61.517-89.068l-19.123-7.347 5.054-19.85a466.995 466.995 0 0 1 50.995-123.213l10.455-17.618 18.719 8.33a95.877 95.877 0 0 0 39.214 8.326c25.41 0 49.28-9.902 67.235-27.9 28.125-28.123 35.769-69.903 19.487-106.439l-8.356-18.75 17.664-10.454a469.028 469.028 0 0 1 123.29-50.98l19.814-5.049 7.363 19.078c14.449 37.386 49.413 61.542 89.093 61.542 39.762 0 74.721-24.146 89.068-61.512l7.347-19.123 19.85 5.059a467.174 467.174 0 0 1 123.218 50.99l17.618 10.46-8.33 18.719c-16.267 36.567-8.628 78.351 19.476 106.455 17.946 17.95 41.861 27.837 67.338 27.837 13.589 0 26.763-2.785 39.138-8.269l18.672-8.284 10.455 17.552a464.256 464.256 0 0 1 51.113 123.248l5.049 19.85-19.119 7.348c-37.365 14.34-61.501 49.305-61.501 89.062z m-5.857-199.542a142.013 142.013 0 0 1-37.95 5.115c-37.796 0-73.282-14.679-99.932-41.334-36.66-36.67-49.879-88.975-36.162-137.871a421.565 421.565 0 0 0-76.39-31.61c-24.874 44.287-71.225 71.93-123.101 71.93-51.784 0-98.13-27.648-123.07-71.936a422.543 422.543 0 0 0-76.559 31.662c13.317 48.517-0.066 101.765-36.111 137.805-26.64 26.71-62.096 41.42-99.84 41.42-12.98 0-25.708-1.725-38.037-5.15a421.023 421.023 0 0 0-31.626 76.41c44.288 24.874 71.936 71.225 71.936 123.101 0 51.789-27.648 98.135-71.936 123.07a417.91 417.91 0 0 0 31.703 76.467c12.293-3.4 24.996-5.115 37.95-5.115 37.79 0 73.282 14.679 99.932 41.334 36.664 36.669 49.889 88.97 36.173 137.87a420.639 420.639 0 0 0 76.385 31.612c24.873-44.288 71.224-71.936 123.095-71.936 51.789 0 98.13 27.643 123.07 71.94a422.932 422.932 0 0 0 76.559-31.666c-13.323-48.512 0.066-101.76 36.106-137.805 26.644-26.711 62.106-41.42 99.845-41.42a141.773 141.773 0 0 1 38.042 5.15 421.345 421.345 0 0 0 31.62-76.411C872.95 482.227 845.313 435.88 845.313 384c0-51.876 27.638-98.227 71.926-123.1a418.627 418.627 0 0 0-31.703-76.442zM512 525.819c-78.198 0-141.819-63.621-141.819-141.819 0-78.203 63.621-141.824 141.819-141.824 78.203 0 141.824 63.621 141.824 141.824 0 78.198-63.621 141.819-141.824 141.819z m0-237.563c-52.792 0-95.739 42.952-95.739 95.744s42.952 95.739 95.739 95.739c52.797 0 95.744-42.952 95.744-95.739 0-52.797-42.947-95.744-95.744-95.744z"  horiz-adv-x="1024" />

    
    <glyph glyph-name="xiaoxi" unicode="&#942337;" d="M409.6 497.778q34.133 0 34.133-34.133v-68.267q0-34.133-34.133-34.133t-34.133 34.133v68.267q0 34.133 34.133 34.133z m227.555 0q34.134 0 34.134-34.133v-68.267q0-34.133-34.134-34.133t-34.133 34.133v68.267q0 34.133 34.133 34.133zM873.177 37.274A498.62 498.62 0 0 1 1012.622 384c0 276.025-224.552 500.622-500.576 500.622C235.93 884.736 11.378 660.139 11.378 384c0-276.025 224.552-500.622 500.576-500.622h364.68c17.773 0 33.884 10.285 41.37 26.283a45.625 45.625 0 0 1-6.144 48.65m-103.697-1.683H512C276.366-43.349000000000046 84.65 148.36599999999999 84.65 384S276.367 811.35 512 811.35 939.35 619.633 939.35 384a425.301 425.301 0 0 0-119.035-295.936c-34.224-35.499-31.425-84.582-12.152-131.436z"  horiz-adv-x="1024" />

    
    <glyph glyph-name="youce2" unicode="&#58880;" d="M1386.666667 362.666667 751.36-106.666667C725.504-106.666667 704.597333-85.248 704.597333-58.794667L704.597333 149.376C704.384 149.376 704.213333 149.333333 704 149.333333L106.666667 149.333333C59.52 149.333333 21.333333 194.816 21.333333 241.962667L21.333333 526.037333C21.333333 573.184 59.52 618.666667 106.666667 618.666667L704 618.666667C704.213333 618.666667 704.384 618.581333 704.597333 618.581333L704.597333 826.794667C704.597333 853.205333 725.504 874.666667 751.36 874.666667L1387.776 404.565333C1399.381333 394.24 1402.624 377.173333 1386.666667 362.666667Z"  horiz-adv-x="1419" />

    
    <glyph glyph-name="youce" unicode="&#59109;" d="M512 591h415v-415H512zM148.9 747.1v-726.2h726.2V747.1H148.9zM97 799h830v-830H97V799z"  horiz-adv-x="1024" />

    
    <glyph glyph-name="zuocedaohang-shouqi" unicode="&#59329;" d="M1024 822.9v-146.3H0V822.9h1024zM512 457.1v-146.3H0V457.1h512z m512 146.3v-438.9L658.3 384 1024 603.4z m0-512v-146.3H0V91.4h1024z"  horiz-adv-x="1024" />

    
    <glyph glyph-name="youce1" unicode="&#942165;" d="M180.66432 356.29056L890.88 363.52 567.6032 710.16448zM573.44 711.6800000000001H143.36v-655.36h276.48z"  horiz-adv-x="1024" />

    
    <glyph glyph-name="zuoce" unicode="&#942133;" d="M853.57568 356.29056L143.36 363.52l323.2768 346.64448zM460.8 711.6800000000001h430.08v-655.36H614.4z"  horiz-adv-x="1024" />

    
    <glyph glyph-name="webpos_dingdanhao_cecb" unicode="&#59493;" d="M357.236364 605.090909c0-16.161616-13.058586-29.349495-29.349495-29.349495-16.161616 0-29.349495 13.187879-29.349495 29.349495s13.187879 29.349495 29.349495 29.349495 29.349495-13.187879 29.349495-29.349495z m0-107.70101c0-16.290909-13.058586-29.349495-29.349495-29.349495-16.161616 0-29.349495 13.058586-29.349495 29.349495 0 16.161616 13.187879 29.349495 29.349495 29.349495s29.349495-13.187879 29.349495-29.349495z m-58.69899-107.571717c0-16.161616 13.187879-29.349495 29.349495-29.349495s29.349495 13.187879 29.349495 29.349495-13.187879 29.349495-29.349495 29.349495-29.349495-13.187879-29.349495-29.349495z m324.008081 188.767677H425.632323c-14.610101 0-26.505051 11.894949-26.50505 26.50505s11.894949 26.505051 26.50505 26.505051h196.783839c14.610101 0 26.505051-11.894949 26.50505-26.505051 0.129293-14.739394-11.765657-26.505051-26.375757-26.50505z m0-107.701011H425.632323c-14.610101 0-26.505051 11.894949-26.50505 26.505051s11.894949 26.505051 26.50505 26.50505h196.783839c14.610101 0 26.505051-11.894949 26.50505-26.50505 0.129293-14.610101-11.765657-26.505051-26.375757-26.505051z m0-107.571717H425.632323c-14.610101 0-26.505051 11.894949-26.50505 26.505051s11.894949 26.505051 26.50505 26.50505h196.783839c14.610101 0 26.505051-11.894949 26.50505-26.50505 0.129293-14.739394-11.765657-26.505051-26.375757-26.505051z m-324.008081-74.472727c0-16.161616 13.187879-29.349495 29.349495-29.349495s29.349495 13.187879 29.349495 29.349495-13.187879 29.349495-29.349495 29.349495-29.349495-13.187879-29.349495-29.349495z m324.008081-26.50505H425.632323c-14.610101 0-26.505051 11.894949-26.50505 26.50505s11.894949 26.505051 26.50505 26.505051h196.783839c14.610101 0 26.505051-11.894949 26.50505-26.505051 0.129293-14.610101-11.765657-26.505051-26.375757-26.50505zM899.878788 619.054545c0 95.806061-35.29697 131.10303-78.99798 131.103031H283.79798c-44.864646 0-81.325253-36.460606-81.325253-81.454546v-511.870707H123.345455c0-119.59596 44.088889-137.567677 98.521212-137.567677H693.010101c44.864646 0 81.454545 36.460606 81.454545 81.454546v518.464646h125.414142z m-157.99596-518.464646c0-26.892929-21.850505-48.872727-48.872727-48.872727-43.571717 0-65.939394 9.309091-65.939394 105.115151H235.054545V668.70303c0 26.892929 21.850505 48.872727 48.743435 48.872728h479.547475c-12.929293-20.428283-20.945455-51.458586-21.333334-95.676768-0.129293-1.034343-0.129293-1.939394-0.129293-2.844445v-518.464646z m0 0"  horiz-adv-x="1024" />

    
    <glyph glyph-name="meiyou-biaoqing" unicode="&#58900;" d="M409.6 146.285714H281.6c0 80.457143-25.6 149.942857-80.457143 208.457143C146.285714 413.257143 80.457143 442.514286 3.657143 442.514286V577.828571c98.742857 0 208.457143-36.571429 277.942857-113.371428 69.485714-76.8 128-212.114286 128-318.171429zM837.485714-128c-113.371429 138.971429-168.228571 307.2-168.228571 504.685714C669.257143 577.828571 724.114286 749.714286 837.485714 892.342857h128c-113.371429-149.942857-171.885714-318.171429-171.885714-512 0-193.828571 54.857143-362.057143 168.228571-508.342857h-124.342857zM1371.428571 833.828571c0-106.057143-58.514286-241.371429-128-318.171428-73.142857-76.8-179.2-113.371429-277.942857-113.371429V537.6c76.8 0 142.628571 29.257143 197.485715 87.771429C1217.828571 683.885714 1243.428571 753.371429 1243.428571 833.828571h128z m687.542858-943.542857H1594.514286v113.371429h464.457143v-113.371429z m632.685714 512c-98.742857 0-226.742857 58.514286-299.885714 135.314286-73.142857 76.8-106.057143 190.171429-106.057143 296.228571H2413.714286c0-80.457143 25.6-149.942857 80.457143-208.457142 54.857143-58.514286 120.685714-87.771429 197.485714-87.771429v-135.314286zM2691.657143-128c113.371429 146.285714 168.228571 314.514286 168.228571 508.342857 0 193.828571-58.514286 365.714286-171.885714 512H2816c113.371429-142.628571 171.885714-314.514286 171.885714-515.657143S2929.371429 7.314286 2816-128h-124.342857zM3657.142857 442.514286c-76.8 0-142.628571-29.257143-197.485714-87.771429-54.857143-58.514286-80.457143-128-80.457143-208.457143h-128c0 106.057143 36.571429 219.428571 106.057143 296.228572 73.142857 76.8 201.142857 135.314286 299.885714 135.314285v-135.314285z"  horiz-adv-x="3657" />

    
    <glyph glyph-name="zhaobudaoshuju" unicode="&#59765;" d="M357.888 540.672H242.176c-6.144 0-10.752 6.144-10.752 13.824v0.512c0 7.68 4.608 13.824 10.752 13.824h81.92c6.656 0 12.288 6.144 12.288 13.824V583.68c0 7.68-5.632 13.824-12.288 13.824H132.608c-6.656 0-12.288-6.144-12.288-13.824v-0.512c0-7.68 5.632-13.824 12.288-13.824h29.184c6.144 0 10.752-6.144 10.752-13.824v-0.512c0-7.68-4.608-13.824-10.752-13.824H14.336c-7.68 0-14.336-6.656-14.336-14.336S6.656 512 14.336 512h95.744c7.68 0 13.824-6.144 13.824-13.824v-0.512c0-7.68-6.144-13.824-13.824-13.824h-33.792c-7.68 0-13.824-6.144-13.824-13.824v-0.512c0-7.68 6.144-13.824 13.824-13.824H291.84c7.68 0 13.824 6.144 13.824 13.824v0.512c0 7.68-6.144 13.824-13.824 13.824H214.016c-7.68 0-13.824 6.144-13.824 13.824v0.512c0 7.68 6.144 13.824 13.824 13.824h143.872c7.68 0 14.336 6.656 14.336 14.336s-6.656 14.336-14.336 14.336zM1009.664 304.128h-115.712c-6.144 0-10.752 6.144-10.752 13.824v0.512c0 7.68 4.608 13.824 10.752 13.824h81.92c6.656 0 12.288 6.144 12.288 13.824v0.512c0 7.68-5.632 13.824-12.288 13.824h-191.488c-6.656 0-12.288-6.144-12.288-13.824v-0.512c0-7.68 5.632-13.824 12.288-13.824h29.184c6.144 0 10.752-6.144 10.752-13.824v-0.512c0-7.68-4.608-13.824-10.752-13.824H665.6c-7.68 0-14.336-6.656-14.336-14.336s6.656-14.336 14.336-14.336h95.744c7.68 0 13.824-6.144 13.824-13.824v-0.512c0-7.68-6.144-13.824-13.824-13.824h-33.792c-7.68 0-13.824-6.144-13.824-13.824v-0.512c0-7.68 6.144-13.824 13.824-13.824h215.552c7.68 0 13.824 6.144 13.824 13.824v0.512c0 7.68-6.144 13.824-13.824 13.824H865.28c-7.68 0-13.824 6.144-13.824 13.824v0.512c0 7.68 6.144 13.824 13.824 13.824h143.872c7.68 0 14.336 6.656 14.336 14.336s-6.144 14.336-13.824 14.336zM809.984 584.704C834.048 722.432 742.4 854.016 604.16 878.592 466.432 902.656 334.848 810.496 310.272 672.768 287.232 542.72 368.128 418.304 493.056 384c1.024-10.752 8.704-20.48 19.968-22.016 11.264-2.048 22.016 4.096 26.624 13.824 129.024-10.24 247.296 78.848 270.336 208.896zM627.712 749.568c-16.896 15.36-37.888 22.528-62.976 22.528-25.6 0-47.616-8.192-66.048-24.064-18.432-16.384-28.672-38.4-31.232-66.56l43.52-7.68c5.12 37.888 20.992 56.832 48.64 56.832 11.776 0 21.504-3.584 28.672-10.752 7.168-7.168 11.264-16.896 11.264-29.184 0-16.384-9.216-31.744-28.16-46.08-12.288-9.728-20.48-16.896-24.064-22.016-3.584-5.12-5.632-12.288-5.632-21.504v-27.136h38.912c0 12.288 1.024 19.968 2.56 24.064 1.536 3.584 4.608 7.168 10.24 11.264 18.944 13.824 31.232 23.552 37.376 29.184 5.632 5.632 11.264 13.312 15.872 23.552 4.608 10.24 6.656 20.48 6.656 31.744-0.512 22.016-8.704 40.96-25.6 55.808zM564.736 520.704m-24.576 0a24.576 24.576 0 1 1 49.152 0 24.576 24.576 0 1 1-49.152 0ZM359.424-73.216a207.872 28.16 0 1 1 415.744 0 207.872 28.16 0 1 1-415.744 0ZM441.344-100.864a35.328 13.312 0 1 1 70.656 0 35.328 13.312 0 1 1-70.656 0ZM282.112-86.528a35.328 13.312 0 1 1 70.656 0 35.328 13.312 0 1 1-70.656 0ZM750.592-88.064a35.328 13.312 0 1 1 70.656 0 35.328 13.312 0 1 1-70.656 0ZM361.472 52.224c53.76-53.248 126.464-86.016 205.824-86.016 79.36 0 151.552 32.768 205.824 86.016-53.76-34.304-126.464-55.296-205.824-55.296-79.36 0.512-151.552 20.992-205.824 55.296zM680.448 116.736c-16.896-4.096-28.16-19.456-28.16-36.864v-102.4c0-17.408 11.264-8.192 28.16-12.288 24.064-5.632 45.568 12.8 45.568 35.84v79.872c0 23.04-21.504 41.472-45.568 35.84z m-14.336-32.256c0 4.608 3.584 8.192 8.192 8.192 4.608 0 8.192-3.584 8.192-8.192 0-4.608-3.584-8.192-8.192-8.192-4.096 0-8.192 3.584-8.192 8.192z m23.04-23.04c-6.656 0-13.312-1.536-19.968-4.608 5.12 7.168 12.288 11.776 19.968 11.776s14.336-4.608 19.968-11.776c-6.656 2.56-13.312 4.608-19.968 4.608z m14.336 14.848c-4.608 0-8.192 3.584-8.192 8.192 0 4.608 3.584 8.192 8.192 8.192s8.192-3.584 8.192-8.192c0-4.608-3.584-8.192-8.192-8.192zM595.456 62.464c-18.432-2.56-31.744-19.968-31.232-38.912v-37.888c-0.512-18.944 12.8-36.352 31.232-38.912 22.528-3.584 42.496 14.336 42.496 36.352v43.008c0 22.016-19.968 39.936-42.496 36.352z m-17.408-32.256c0 4.608 3.584 8.192 8.192 8.192 4.608 0 8.192-3.584 8.192-8.192 0-4.608-3.584-8.192-8.192-8.192-4.608 0-8.192 3.584-8.192 8.192z m23.04-23.552c-6.656 0-13.312-1.536-19.968-4.608 5.12 7.168 12.288 11.776 19.968 11.776s14.336-4.608 19.968-11.776c-6.656 3.072-13.312 4.608-19.968 4.608z m14.336 15.36c-4.608 0-8.192 3.584-8.192 8.192 0 4.608 3.584 8.192 8.192 8.192 4.608 0 8.192-3.584 8.192-8.192 0-4.608-3.584-8.192-8.192-8.192zM507.392 69.632c-18.432-2.56-31.232-19.456-31.232-37.888v-44.544c0-18.432 12.8-34.816 31.232-37.888 22.528-3.584 42.496 14.336 42.496 36.352v47.104c0 22.528-19.968 40.448-42.496 36.864z m-17.408-32.768c0 4.608 3.584 8.192 8.192 8.192 4.608 0 8.192-3.584 8.192-8.192 0-4.608-3.584-8.192-8.192-8.192-4.608 0-8.192 4.096-8.192 8.192z m23.04-23.04c-6.656 0-13.312-1.536-19.968-4.608 5.12 7.168 12.288 11.776 19.968 11.776s14.336-4.608 19.968-11.776c-6.656 3.072-13.312 4.608-19.968 4.608z m14.336 14.848c-4.608 0-8.192 3.584-8.192 8.192 0 4.608 3.584 8.192 8.192 8.192s8.192-3.584 8.192-8.192c0-4.096-3.584-8.192-8.192-8.192zM567.296-31.744c-80.384 0-153.6 33.792-207.872 88.064 35.84-86.016 115.2-145.92 207.872-145.92s172.032 59.904 207.872 145.92c-54.272-54.272-127.488-88.064-207.872-88.064zM520.704 233.984l-12.8 19.968-23.552 1.024 14.848 17.92-6.144 23.04 22.016-8.704 19.456 12.8-1.536-23.552 18.432-14.336-22.528-6.144zM532.48 76.288l-7.68 18.944-19.456 4.096 15.36 12.8-2.048 19.968 16.896-10.24 18.432 7.68-5.12-19.456 13.824-14.848-20.48-1.536zM584.704 191.488l-11.776-12.288 3.584-16.896-15.36 7.168-14.848-8.704 2.048 16.896-12.8 11.264 16.896 3.584 6.656 15.872 8.192-15.36zM795.648 66.56l-10.24-12.288 4.608-15.36-14.848 5.632-12.8-9.216 0.512 15.872-12.288 9.728 15.36 4.096 5.12 14.848 8.704-13.312zM773.12-84.48l-159.744 190.464c-1.024 1.024-0.512 2.56 0.512 3.584l1.024 1.024c1.024 1.024 2.56 0.512 3.584-0.512l159.744-190.464c1.024-1.024 0.512-2.56-0.512-3.584l-1.024-1.024c-1.024-0.512-3.072-0.512-3.584 0.512z"  horiz-adv-x="1024" />

    
    <glyph glyph-name="meiyou" unicode="&#58933;" d="M0 122.3c0-48.3 108-92.9 283.4-117.1 175.4-24.1 391.5-24.1 566.9 0 175.4 24.2 283.4 68.8 283.4 117.1s-108 92.9-283.4 117.1c-175.4 24.1-391.5 24.1-566.9 0C108 215.2 0 170.6 0 122.3z m0 0M494.8 760c26.3 15.3 41.5 13 50.2 3 21.8-25.2-26.5-62.6-32-69.4-5.5-6.8 6.6-11.2 6.6-11.2 157.8-80.1 217.7-222 217.7-341.2 0-92.6-34.6-168.3-97.8-210.5-39.1-26.1-156.1-60.2-277.5-57.7-152.4 3.1-311.9 59.2-334 209-42 286 186.4 387.8 200.9 393.1 14.5 5.3 3.7 15.7 0 18.5-46.7 34.8-29.1 53.4-22 60.5 8.2 8.2 27.2 12.3 51.3-7.3 26.6-21.6 30.1-43.3 42-44.6 11.9-1.3 85.8 16 149.5 0 0.1 0 20.7 43.6 45.1 57.8z m0 0M526.9 771c8 0 13.9-3.1 18.2-8 21.8-25.2-26.5-62.6-32-69.4-5.5-6.8 6.6-11.2 6.6-11.2 157.8-80.1 217.7-222 217.7-341.2 0-92.6-34.6-168.3-97.8-210.5-37.8-25.2-148-57.9-264.9-57.9-4.2 0-8.4 0-12.6 0.1-152.4 3.1-311.9 59.2-334 209C-14 568 214.4 669.8 228.9 675.1c14.5 5.3 3.7 15.7 0 18.5-46.7 34.8-29.1 53.4-22 60.5 3.8 3.9 10.1 6.8 18.2 6.8 9.1 0 20.4-3.7 33.2-14.1 26.6-21.6 30.1-43.3 42-44.6 0.4 0 0.9-0.1 1.5-0.1 10.5 0 45.6 6.9 86 6.9 20.1 0 41.6-1.7 62-6.8 0 0 20.6 43.6 45 57.8 13.3 7.8 23.8 11 32.1 11m0 9.1c-10.5 0-22.5-4-36.6-12.2-20.8-12.1-38.3-41.9-45.4-55.2-17.1 3.6-36.2 5.5-57.1 5.5-27.3 0-52.3-3.1-68.8-5.1-7.6-0.9-14.2-1.8-17.2-1.8h-0.6c-1.7 0.2-5.7 6.1-8.7 10.4-5.9 8.6-14 20.4-28.5 32.2-16.4 13.4-30.2 16.2-38.9 16.2-9.8 0-18.5-3.4-24.6-9.5-3.5-3.5-12.8-12.8-11.8-27.3 1.1-14.9 12.5-30.3 34.8-46.9 1-0.7 1.9-1.7 2.6-2.5-0.1 0-0.2-0.1-0.3-0.1-0.6-0.2-66.9-26.4-125.4-93.9-31.7-36.5-55.1-78.2-69.4-123.7-17.7-56.2-21.7-118.6-11.9-185.4C29.7 208.4 71 152.5 141.9 114.4c73.7-39.6 160.3-49.4 220-50.6 4.3-0.1 8.5-0.1 12.8-0.1 111.8 0 227.2 30.8 270 59.4 65.7 43.9 101.9 121.4 101.8 218.1 0 66.2-17.6 131.8-50.9 189.8-38.9 67.8-96.7 121.4-171.8 159.5-0.2 0.1-0.5 0.2-0.7 0.3l1.5 1.5c14 13.4 51.4 48.9 27.3 76.7-6.3 7.3-15 11.1-25 11.1z m0 0M564.3 656.4c37.1-48.5 120.2-167.3 122.1-260.4 3.8-182.1-61.6-283.8-279.7-322.5 104.6 5.1 198.8 34.1 233.1 57.1 63.2 42.2 97.8 117.9 97.8 210.5 0.1 107.2-48.5 232.9-173.3 315.3z m0 0M667.2 405.7s10-14.2 18.5-6.2c8.5 8 5.8 6.5 11.5 11.2 5.7 4.7 18.3 10.4 22.8-4.5s-3.2-27.5-14.6-37.9c-11.4-10.4-24.3-21.8-44.8-22.8M660.5 340.9c-2.5 0-4.5 2-4.6 4.4-0.1 2.5 1.9 4.5 4.3 4.7 19.4 0.9 31.4 11.9 42 21.6 12.3 11.2 16.7 22.1 13.3 33.2-1 3.5-2.6 5.5-4.5 6.1-3.2 1-7.9-1.3-11-3.8-2.7-2.2-3.2-2.8-4.3-4-1.1-1.3-2.7-3-7-7-2.9-2.7-6.4-3.9-10.1-3.6-8.2 0.8-14.5 9.5-15.2 10.5-1.4 2.1-1 4.9 1.1 6.3 2.1 1.4 4.9 1 6.3-1.1 1.5-2 5.5-6.4 8.7-6.7 0.7-0.1 1.7 0 2.9 1.2 4 3.8 5.4 5.3 6.5 6.5 1.3 1.5 2.2 2.4 5.2 4.9 4.9 4 12.6 7.6 19.4 5.5 3.5-1.1 8.2-4 10.6-12.2 4.4-14.6-1-28.9-15.9-42.6-11.2-10.2-25.1-22.9-47.7-24v0.1z m0 0M269.7 534.7s-5.9-22.8-29.6-15.2M249.3 513.4c-3.3 0-6.8 0.6-10.5 1.8-2.4 0.8-3.7 3.3-2.9 5.7 0.8 2.4 3.3 3.7 5.7 2.9 5.9-1.9 10.9-1.8 15 0.4 6.6 3.6 8.8 11.5 8.8 11.6 0.3 1.2 1.1 2.2 2.1 2.8 1 0.6 2.3 0.8 3.4 0.5 2.4-0.6 3.9-3.1 3.2-5.5-0.1-0.5-3.2-11.7-13.2-17.2-3.5-2-7.5-3-11.6-3z m0 0M433.4 537.5s2.2-23.5 32-21.5M461.9 511.4c-30.2 0-33 25.4-33 25.7-0.2 2.5 1.6 4.6 4.1 4.9 2.5 0.2 4.7-1.5 5-4 0.2-2 2.8-19 27.2-17.4 1.6 0.1 3.2-0.6 4.2-2 0.9-1.4 1-3.1 0.3-4.6-0.7-1.5-2.2-2.4-3.9-2.5-1.4-0.1-2.7-0.1-3.9-0.1z m-7.9-85.5c-15.6 0-20.9 6.5-22.6 11.9-4.4 13.9 11.2 33.8 18.9 39.2 13.1 9.2 43.2 15.6 73.3 15.6 18.9 0 53.6-2.8 73-21.2 13.8-13.1 18.9-24.5 15.2-34-3-7.6-11.5-11.6-18.3-11.6h-30.3c-34.1 0-82.5 0.1-108.9 0h-0.3z m69.6 57.6c-31.3 0-58.4-7.2-68-14-6.8-4.8-18-20.9-15.5-29 1.5-4.6 8.4-5.6 13.9-5.6v-4.6l0.2 4.6c26.4 0.1 74.8 0.1 108.9 0h30.3c3 0 8.3 1.9 9.9 5.8 2.1 5.4-2.6 14.1-13 24-12.7 12.2-36.4 18.8-66.7 18.8z m0 0M593.5 468.1c-9 8.6-22.3 14-37.3 16.9-9.9-9-27.1-29.5-11.8-54.6h49.1c9.4 0.1 28.2 11 0 37.7z m-291.7 0c-9 8.6-22.3 14-37.3 16.9-9.9-9-27.1-29.5-11.8-54.6h49.1c9.4 0.1 28.2 11 0 37.7z m0 0M162.3 425.9c-15.6 0-20.9 6.5-22.6 11.9-4.4 14 11.3 33.8 18.9 39.2 13.1 9.2 43.2 15.6 73.3 15.6 18.9 0 53.6-2.8 73-21.2 13.8-13.1 18.9-24.5 15.2-34-3-7.6-11.5-11.6-18.3-11.6h-30.3c-34.1 0-82.5 0.1-108.9 0h-0.3z m69.6 57.6c-31.3 0-58.4-7.2-68-14-6.8-4.8-18-20.9-15.5-29 1.5-4.6 8.4-5.6 13.9-5.6v-4.6l0.2 4.6c26.4 0.1 74.8 0.1 108.9 0h30.3c3 0 8.3 1.9 9.9 5.8 2.1 5.4-2.6 14.1-13 24-12.7 12.2-36.4 18.8-66.7 18.8z m0 0M355.3 392.3s9.9 12.4 16.4 13.5c6.4 1.1 18-2.6 13.9-13.5s-20.3-13.9-20.3-13.9 12.7 1.3 14.6-8.9c1.2-6.4-10.4-14.9-24.5 1.7M371.3 357.1c-4.8 0-11.8 2.2-19.5 11.3-1.6 1.9-1.4 4.8 0.5 6.4 1.9 1.6 4.8 1.4 6.4-0.5 6.6-7.7 12.1-8.9 14.9-7.6 1.3 0.6 1.8 1.7 1.7 2.1-1.1 5.8-8.8 5.3-9.7 5.2-2.4-0.2-4.6 1.5-4.9 3.9-0.3 2.4 1.3 4.7 3.7 5.1 3.8 0.7 14.3 4.1 16.9 11 1.2 3.2 0.2 4.5-0.2 4.9-1.7 2-5.9 2.9-8.6 2.5-2.8-0.5-9.3-6.5-13.6-11.9-1.6-2-4.4-2.3-6.4-0.7-2 1.6-2.3 4.4-0.7 6.4 1.8 2.3 11.4 13.8 19.1 15.1 5.4 0.9 13.1-0.7 17.2-5.6 3.1-3.7 3.7-8.7 1.7-13.9-2-5.4-6.2-9.1-10.5-11.7 2.4-1.9 4.3-4.7 5-8.7 0.9-4.7-1.9-9.7-6.7-12-1.1-0.5-3.3-1.3-6.3-1.3z m0 0M131.3 376.7c0-12 8.1-23 21.3-29 13.2-6 29.4-6 42.6 0 13.2 6 21.3 17 21.3 29s-8.1 23-21.3 29c-13.2 6-29.4 6-42.6 0-13.2-6-21.3-17-21.3-29z m0 0M510.9 376.7c0-18.5 19-33.4 42.4-33.4s42.4 15 42.4 33.4c0 18.5-19 33.4-42.4 33.4-23.4 0.1-42.4-14.9-42.4-33.4z m0 0M677.9 682.4c0-7.3 3.9-14 10.2-17.6 6.3-3.6 14-3.6 20.3 0 6.3 3.6 10.2 10.3 10.2 17.6 0 7.3-3.9 14-10.2 17.6-6.3 3.6-14 3.6-20.3 0-6.3-3.7-10.2-10.4-10.2-17.6z m0 0M698.2 657.5c-13.7 0-24.9 11.2-24.9 24.9s11.2 24.9 24.9 24.9 24.9-11.2 24.9-24.9-11.2-24.9-24.9-24.9z m0 40.6c-8.7 0-15.8-7.1-15.8-15.8 0-8.7 7.1-15.8 15.8-15.8 8.7 0 15.8 7.1 15.8 15.8 0 8.8-7.1 15.8-15.8 15.8z m0 0M766.6 682.4c0-7.3 3.9-14 10.2-17.6 6.3-3.6 14-3.6 20.3 0 6.3 3.6 10.2 10.3 10.2 17.6 0 7.3-3.9 14-10.2 17.6-6.3 3.6-14 3.6-20.3 0-6.4-3.7-10.2-10.4-10.2-17.6z m0 0M786.9 657.5c-13.7 0-24.9 11.2-24.9 24.9s11.2 24.9 24.9 24.9 24.9-11.2 24.9-24.9-11.2-24.9-24.9-24.9z m0 40.6c-8.7 0-15.8-7.1-15.8-15.8 0-8.7 7.1-15.8 15.8-15.8 8.7 0 15.8 7.1 15.8 15.8-0.1 8.8-7.1 15.8-15.8 15.8z m0 0M850.6 682.4c0-11.2 9.1-20.3 20.3-20.3 11.2 0 20.3 9.1 20.3 20.3 0 11.2-9.1 20.3-20.3 20.3-11.2 0-20.3-9.1-20.3-20.3z m0 0M870.9 657.5c-13.7 0-24.9 11.2-24.9 24.9s11.2 24.9 24.9 24.9 24.9-11.2 24.9-24.9-11.2-24.9-24.9-24.9z m0 40.6c-8.7 0-15.8-7.1-15.8-15.8 0-8.7 7.1-15.8 15.8-15.8 8.7 0 15.8 7.1 15.8 15.8 0 8.8-7.1 15.8-15.8 15.8z m30-161.7h-0.2c-1.5 0.1-2.6 1.4-2.6 2.9 0.1 1.3 2.2 32.6 19.6 44.9 2.9 2.1 6.3 3.6 9.8 4.3 2.1 4.3 5.8 9.1 11.8 14.4 17.6 15.5 30.4 19.6 71.2 13.5 1-0.1 1.8-0.8 2.2-1.7 0.4-0.9 0.2-1.9-0.4-2.7-0.6-0.8-1.6-1.1-2.6-1-39 5.8-50.4 2.2-66.8-12.2-3.8-3.3-6.7-6.6-8.8-9.7 3-0.1 5.9-0.6 8.8-1.4 13.5-3.8 13.8-11.1 13.3-14.1-1.1-6.4-8.7-12.3-15.5-11.8-5.4 0.3-12.4 4.1-14.9 11.4-0.7 2.1-1.2 5.2-0.5 9-1.6-0.6-3.1-1.4-4.4-2.4-15.2-10.8-17.3-40.5-17.3-40.8-0.1-1.4-1.3-2.6-2.7-2.6z m30.4 47.2c-1.1-3.1-1.2-6-0.3-8.6 1.6-4.8 6.3-7.5 10-7.8 4-0.3 9.1 3.6 9.8 7.3 0.8 4.4-5.5 6.9-9.4 7.9-3.6 1.1-6.9 1.4-10.1 1.2z m0 0M1025.8 636.1s14.1-5.5 27.5 16.8 34.4 26 69.1 20.8c0 0-27.5-35.9-53.5-46.1-26-10.1-43.1 8.5-43.1 8.5z m0 0M1053.4 621.9c-18.1 0-29.2 11.8-29.7 12.3-0.9 0.9-1 2.3-0.2 3.4 0.7 1 2.1 1.5 3.2 1 0 0 12-4.5 24.1 15.7 10.1 16.8 24.7 24.2 47.4 24.2 7 0 15-0.7 24.5-2.1 1-0.1 1.8-0.8 2.1-1.7 0.4-0.9 0.2-1.9-0.4-2.7-1.1-1.5-28.3-36.7-54.7-47-5.3-2-10.8-3.1-16.3-3.1z m-19.6 11.3c4.5-2.8 11.2-5.8 19.6-5.8 4.7 0 9.6 1 14.4 2.8 20.1 7.9 41.6 32.2 49.4 41.5-7.2 0.9-13.4 1.4-18.9 1.4-20.9 0-33.6-6.4-42.7-21.6-7.7-12.8-16-17.1-21.8-18.3z m0 0M1027.3 634.7s25.2-6.2 49.2 18.3c24 24.5 45.8 20.8 45.8 20.8M1035 631.2c-4.9 0-8 0.7-8.4 0.8-1.5 0.4-2.4 1.8-2 3.3 0.4 1.5 1.8 2.4 3.3 2 1-0.2 24.1-5.5 46.6 17.5 24.8 25.3 47.3 21.8 48.2 21.6 1-0.2 1.8-0.8 2.1-1.7 0.3-0.9 0.2-1.9-0.5-2.7-0.6-0.8-1.6-1.1-2.6-0.9-0.2 0-20.8 3.1-43.4-20-16.4-17-33.4-19.9-43.3-19.9z m0 0M1068.3 643c-1.5 0-2.7 1.2-2.7 2.7v23.1c0 1 0.5 1.9 1.4 2.4 0.8 0.5 1.9 0.5 2.7 0 0.8-0.5 1.4-1.4 1.4-2.4v-23.1c-0.1-1.5-1.3-2.7-2.8-2.7z m0 0M1089.5 663c-1.5 0-2.7 1.2-2.7 2.7v9.7c0 1.5 1.2 2.7 2.7 2.7s2.7-1.2 2.7-2.7v-9.7c0-0.7-0.3-1.4-0.8-1.9-0.5-0.6-1.2-0.8-1.9-0.8z m0 0M1061.9 641.5l12.9-11M1074.8 627.7c-0.6 0-1.3 0.2-1.8 0.7l-12.9 11c-0.8 0.6-1.1 1.6-1 2.6 0.2 1 0.9 1.8 1.8 2.1 0.9 0.3 2 0.1 2.7-0.6l12.9-11c0.9-0.7 1.2-1.9 0.8-3-0.3-1-1.3-1.8-2.5-1.8z m0 0M1079 655.4l14.8-9.7M1093.8 643c-0.5 0-1 0.2-1.5 0.4l-14.8 9.7c-1.3 0.8-1.6 2.5-0.8 3.8 0.4 0.6 1 1 1.7 1.2 0.7 0.1 1.5 0 2.1-0.4l14.8-9.7c1-0.7 1.4-1.9 1.1-3.1-0.3-1.1-1.4-1.9-2.6-1.9z m0 0M433.4 677.3c-0.3 0-0.6 0-0.9 0.1-3.6 0.7-6.4 1.3-9.4 1.3-4.1 0.1-8.3 0.3-12.4 0.5-1.6 0.1-3.1 1.1-3.8 2.5-0.7 1.5-0.6 3.2 0.3 4.5 0.9 1.4 2.5 2.1 4.1 2 4-0.2 8.1-0.4 12.1-0.5 3.8-0.1 7.1-0.7 11-1.5 2.3-0.4 3.9-2.6 3.7-4.9-0.4-2.3-2.4-4-4.7-4zM316.7 675c-2.2 0-4.1 1.5-4.5 3.7-0.4 2.1 0.7 4.3 2.7 5.1 9.2 3.8 17.6 4.9 27.2 5.4 6.6 0.3 15.6 0.3 26.2-2.7 1.6-0.4 2.8-1.7 3.2-3.3 0.4-1.6-0.1-3.3-1.2-4.4-1.2-1.1-2.9-1.6-4.4-1.1-7.4 2.1-14.3 2.8-23.3 2.3-8.7-0.4-16.2-1.4-24.2-4.7-0.5-0.2-1.1-0.3-1.7-0.3z m0 0M841 521l267.6-25.1L880 439.7l-155.6 19.5-12.6 30.7L841 521z m0 0M879.9 435.2h-0.6l-155.6 19.5c-1.6 0.2-3 1.3-3.6 2.8l-12.6 30.7c-0.5 1.2-0.4 2.6 0.2 3.8 0.6 1.2 1.7 2 3 2.4l129.2 31.1c0.5 0.1 1 0.2 1.5 0.1l267.6-25.1c2.2-0.2 4-2 4.1-4.2 0.2-2.2-1.3-4.2-3.5-4.8L881 435.3c-0.3-0.1-0.7-0.1-1.1-0.1z m-152.3 28.3l152.1-19.1 201.6 49.5-240 22.5L718 486.8l9.6-23.3z m0 0M841 440.1c-1.2 0-2.4 0.5-3.2 1.3-0.9 0.9-1.3 2-1.3 3.2V521c0 2.5 2 4.6 4.6 4.6 2.5 0 4.6-2 4.6-4.6v-76.4c-0.2-2.5-2.2-4.5-4.7-4.5z m0 0M879.9 439.7s64.1-58.9 62.8-126.6c0 0 5.1-2.6 17.5 1.4s203.7 51.5 223 72.8c0 0 1.3 7.1-7.3 21.6-8.6 14.5-49.9 75-67.4 86.9l-228.6-56.1z m0 0M948 307.8c-4.4 0-6.8 1-7.4 1.3-1.6 0.8-2.5 2.4-2.5 4.1 1.3 64.8-60.7 122.6-61.3 123.1-1.2 1.1-1.7 2.9-1.3 4.5 0.4 1.6 1.7 2.9 3.3 3.3l228.6 56.2c1.3 0.3 2.6 0.1 3.6-0.7 18.8-12.7 60.6-74.6 68.8-88.3 9-15.2 8.1-23.3 7.8-24.8-0.2-0.8-0.5-1.6-1.1-2.2-15-16.6-117.5-45.4-205.2-68.7-10.3-2.7-17.8-4.7-19.8-5.4-4.9-1.6-9.5-2.4-13.5-2.4z m-0.7 9.1h0.8c2.1 0 5.7 0.3 10.8 2 2.2 0.7 9.4 2.6 20.3 5.5 44.9 11.9 179.7 47.8 199.6 65-0.2 2.3-1.2 8.1-6.7 17.4-8.3 14.1-47 70.6-64.5 84.3L889 437.4c15.8-16.5 57.5-64.8 58.3-120.5z m0 0M878 440s-48.9-53.2-56.1-127.7L743 326.7s3.9 57.3-18.5 132.5L878 440z m0 0M821.8 307.8c-0.3 0-0.6 0-0.8 0.1l-78.9 14.4c-2.3 0.4-3.9 2.5-3.7 4.8 0 0.6 3.6 57.4-18.3 130.9-0.4 1.5-0.1 3.1 0.9 4.2 1 1.2 2.5 1.8 4 1.6l153.6-19.3c1.7-0.2 3.1-1.3 3.7-2.9 0.6-1.6 0.2-3.4-0.9-4.6-0.5-0.5-47.9-53-55-125-0.1-1.3-0.8-2.4-1.8-3.2-0.8-0.7-1.8-1-2.8-1z m-74.2 22.7l70.2-12.8c7.2 58.4 38.4 102.7 51.3 118.8l-138.4 17.4c17.3-61.5 17.3-109.4 16.9-123.4z m0 0M879 439.7v-317s122.7 41.1 229.6 66.9V356.4l-101.3-29.2-52.7-14.2s-9.3-2-11.9 0.1c-2.5 2.2 9.1 53.7-63.7 126.6z m0 0M879 118.2c-1.2 0-2.4 0.5-3.2 1.3-0.9 0.9-1.3 2-1.3 3.2v317c0 1.8 1.1 3.5 2.8 4.2 1.7 0.7 3.7 0.3 5-1 62.6-62.6 64.1-109.6 64.5-125v-1.2h0.4c2.9 0 6.5 0.8 6.5 0.8l52.4 14.1 101.2 29.2c1.4 0.4 2.9 0.1 4-0.7 1.1-0.9 1.8-2.2 1.8-3.6v-166.7c0-2.1-1.4-3.9-3.5-4.4-105.4-25.4-228-66.4-229.2-66.8-0.5-0.3-1-0.4-1.4-0.4z m4.5 310.3v-299.4c25.6 8.4 128.9 41.9 220.5 64.2v157l-95.5-27.5-52.7-14.2c-0.4-0.1-4.7-1-8.6-1-3.3 0-5.7 0.6-7.3 2-2 1.6-2.1 3.8-2.2 8-0.5 13.9-1.8 54.9-54.2 110.9z m0 0M685.7 167.4s109.5-25.3 193.2-44.6v317s-49.4-50.3-57.2-127.4l-78.9 14.4c0.1-0.1-0.9-94.5-57.1-159.4z m0 0M879 118.2c-0.3 0-0.7 0-1 0.1-83.8 19.3-193.2 44.6-193.2 44.6-1.6 0.4-2.8 1.5-3.3 3s-0.2 3.2 0.9 4.4c54.5 63 56 155.5 56 156.4 0 1.3 0.6 2.6 1.7 3.5 1 0.9 2.4 1.2 3.7 1l74.1-13.6c9.3 75 55.9 123.2 57.9 125.2 1.3 1.3 3.3 1.7 5 1 1.7-0.7 2.8-2.4 2.8-4.2v-317c0-1.2-0.5-2.4-1.3-3.2-1-0.7-2.1-1.2-3.3-1.2z m-185 52c25-5.8 110.5-25.5 180.4-41.7v299c-14-17.6-42.4-59.6-48.1-115.6-0.1-1.3-0.8-2.4-1.8-3.2-1-0.8-2.3-1.1-3.6-0.8l-73.8 13.5c-0.9-20.6-7.8-94.6-53.1-151.2z m0 0M938.3 313.4c-0.6 25.9-6 63.1-55.5 116.2 0 0 40.5-62.3 44-107.1l11.5-9.1z m-63.6 116.2s-44.6-54.4-48.6-117.3c0 0 11.1 4.2 12.5 10.3 7.3 33 26 80.9 36.1 96.6v10.4z m0 0M538.3 768.7s30.2-17.5-31.8-68.5c0 0-8.9-15.9 16.9-22.1 0 0 3.5-1.1 9.9-2.7 0 0-14.9 7.9-20.4 11.5 0 0-4.4 3.8 1.1 8.6 0 0 46.3 38.5 34.3 62.5 0 0-3 6.8-10 10.7z m0 0M80.5 464.2c36.3 110.9 124.3 176.2 136.1 184.2 24.2 16.4 61 30.2 18.4 56.5s-12.9 55.8-12.9 55.8c-6.6-0.6-11.8-3.3-15.2-6.6-7.1-7.1-24.7-25.7 22-60.5 3.7-2.8 14.5-13.2 0-18.5C214.4 669.8-14 568 28.1 282 43.7 176 128 117 230 90.4 60.1 182.7 42.3 347.4 80.5 464.2z m0 0M84.7 409.1s-5.2-9.2-16.1-4c-10.9 5.2-14.1 10-21.3 11.9-7.2 1.9-20.6-25.9 7.4-47.2 28-21.3 48.7-19.9 52.8-19.7M104.6 345.4c-16.4 0-34.9 7.3-52.6 20.7-22.3 17-20.5 37.5-15.9 46.9 3.1 6.3 7.8 9.5 12.4 8.3 4.6-1.2 7.9-3.4 11.4-5.8 2.8-1.9 6-4.1 10.7-6.4C77 406 80 410 80.8 411.3c1.3 2.1 4 2.8 6.2 1.6 2.2-1.2 2.9-4 1.7-6.1-2.5-4.4-10.4-11.4-22-5.8-5.4 2.6-9 5.1-11.9 7.1-3 2-5.2 3.5-8 4.4-1.1-0.8-3.4-4-4.2-9.3-0.7-5-0.6-17.8 15-29.7 17.1-13 34.7-19.7 49.7-18.8l0.6-9.1c-1.2-0.1-2.2-0.2-3.3-0.2z m0 0"  horiz-adv-x="1188" />

    
    <glyph glyph-name="qingchulishijiluicon" unicode="&#58923;" d="M320.853333 64c17.6128 0 31.8464 14.336 31.8464 32.017067V448a31.914667 31.914667 0 0 1-31.8464 31.982933 31.914667 31.914667 0 0 1-31.8464-31.982933v-352.017067c0-17.681067 14.2336-31.982933 31.8464-31.982933z m191.146667 0c17.6128 0 31.8464 14.336 31.8464 32.017067V448a31.914667 31.914667 0 0 1-31.8464 31.982933 31.914667 31.914667 0 0 1-31.8464-31.982933v-352.017067c0-17.681067 14.2336-31.982933 31.8464-31.982933z m191.146667 0c17.6128 0 31.8464 14.336 31.8464 32.017067V448a31.914667 31.914667 0 0 1-31.8464 31.982933 31.914667 31.914667 0 0 1-31.8464-31.982933v-352.017067c0-17.681067 14.2336-31.982933 31.8464-31.982933z m159.300266 736.017067H730.453333C716.253867 855.04 666.760533 896 607.573333 896h-191.146666C357.205333 896 307.746133 855.04 293.512533 800.017067H161.553067C91.272533 800.017067 34.133333 742.570667 34.133333 672.017067V640h31.8464v-32.017067H129.706667V0C129.706667-70.5536 186.845867-128 257.1264-128h509.7472c70.280533 0 127.419733 57.4464 127.419733 128V608.017067h63.726934V640H989.866667v32.017067c0 70.5536-57.1392 128-127.419734 128zM416.426667 832h191.146666c23.4496 0 43.793067-12.970667 54.852267-31.982933H361.5744a63.488 63.488 0 0 0 54.852267 31.982933zM830.5664 0a63.931733 63.931733 0 0 0-63.6928-64H257.1264c-35.1232 0-68.130133 28.672-68.130133 64l4.437333 608.017067h637.1328V0zM97.860267 672.017067c0 35.293867 28.5696 64 63.6928 64h700.893866c35.1232 0 63.6928-28.706133 63.6928-64H97.860267z"  horiz-adv-x="1024" />

    
    <glyph glyph-name="toubudaohangcaozuotubiao_saoyisao" unicode="&#59422;" d="M864 629.333333v-106.666666h64v106.666666a170.666667 170.666667 0 0 1-170.666667 170.666667h-64v-64h64c58.816 0 106.666667-47.850667 106.666667-106.666667zM160 629.333333c0 58.816 47.850667 106.666667 106.666667 106.666667h64v64h-64a170.666667 170.666667 0 0 1-170.666667-170.666667v-106.666666h64v106.666666zM864 138.666667c0-58.816-47.850667-106.666667-106.666667-106.666667h-64v-64h64a170.666667 170.666667 0 0 1 170.666667 170.666667v106.666666h-64v-106.666666zM160 138.666667v106.666666h-64v-106.666666a170.666667 170.666667 0 0 1 170.666667-170.666667h64v64h-64c-58.816 0-106.666667 47.850667-106.666667 106.666667zM970.666667 416h-917.333334a32 32 0 1 1 0-64h917.333334a32 32 0 1 1 0 64z"  horiz-adv-x="1024" />

    
    <glyph glyph-name="remen" unicode="&#942614;" d="M336.286046-79.57817399999999c-3.488451 0-6.952342 0.8913-10.04989 2.63706-98.270141 55.388495-160.375617 109.191888-195.450461 169.323407-33.957393 58.216913-42.257429 121.69976-26.121937 199.785186 10.086729 48.731888 32.047904 92.693122 53.284577 135.206378 25.090445 50.225915 48.78817 97.667413 52.150754 149.624762 0.587378 9.080819 7.099698 16.682961 15.981996 18.656919 8.881274 1.974981 18.002003-2.153036 22.381753-10.129708 21.171182-38.564317 29.898961-69.831438 34.438347-105.122199C386.514008 617.718019 431.623391 736.565824 417.042301 834.142164c-1.042749 6.976902 1.581008 13.998829 6.943133 18.582217 5.362124 4.583388 12.704346 6.082532 19.435655 3.967358 1.992377-0.626263 49.435922-15.919575 105.655342-66.479087 32.55751-29.27986 61.630662-64.572668 86.407975-104.897072 23.652699-38.492686 43.425022-81.684394 59.007929-128.84039 10.722202 33.908274 4.494361 77.5574-8.007371 104.917538-3.868097 8.463766-1.538029 18.472723 5.67014 24.358781 7.208169 5.884011 17.479093 6.167466 25.000394 0.685615 22.26612-16.231683 74.410734-69.52854 119.541607-143.44911 39.32975-64.418148 84.894506-164.094312 78.615499-273.129634-3.701299-64.275909-24.943089-124.8321-63.135946-179.989327-43.037189-62.150502-108.315938-118.251218-194.023972-166.738535-7.871271-4.454452-17.730826-3.212158-24.251334 3.049452-6.522554 6.262634-8.162914 16.063861-4.03285 24.109094 20.86112 40.640606 33.42118 85.62003 37.33328 133.688815 3.759627 46.191018-0.566912 93.233428-12.858866 139.821489-12.178367 46.157249-31.469736 89.245603-57.335846 128.067794-17.573237 26.373671-37.569664 49.830919-59.736523 70.104661-0.723477-22.648836-4.007267-47.852868-9.702989-72.650647-9.266038-40.33873-29.119201-98.228185-71.077825-144.93802-6.157233-6.851035-16.133446-8.748245-24.37106-4.631484-8.240685 4.115738-12.715603 13.231349-10.933003 22.268166 4.548596 23.068392 4.516874 45.553499-0.074701 67.063395-10.207479-27.550473-26.037003-62.133106-49.892317-97.023754-41.09393-60.112076-73.272817-123.870192-16.427134-242.198158 2.752694-5.730515 2.687202-12.414751-0.179079-18.088984l-0.056282-0.110517c-2.51938-4.989641-6.970762-8.731872-12.319583-10.356882C340.287173-79.28550800000005 338.28354-79.57817399999999 336.286046-79.57817399999999zM236.843196 505.031541c-11.002588-33.341363-26.798343-64.960501-42.276872-95.948259-20.064988-40.167838-40.813544-81.702813-49.818639-125.204583-13.969153-67.601654-7.17133-121.899304 21.395286-170.872692 24.578792-42.136679 67.013253-82.749656 129.024585-123.311467-11.523451 38.1069-14.688537 73.488735-9.67843 107.077737 7.132444 47.812959 30.256094 86.677105 51.934836 118.389364 46.948265 68.666916 59.872622 137.594775 59.997466 138.282437 1.446955 7.959276 7.448646 14.335497 15.310707 16.243963 7.861038 1.908466 16.112979-0.978281 21.047362-7.388271 1.26583-1.644453 21.965268-29.127388 29.217439-74.775031 12.380982 25.41074 20.011776 50.66389 24.673959 70.962192 10.257621 44.656059 10.426467 84.469833 6.042623 104.118336-1.837858 8.239662 1.571798 16.762779 8.586562 21.460778 7.013741 4.697999 16.194844 4.606925 23.113417-0.230244 40.795125-28.515451 76.342736-65.278749 105.654318-109.271706 28.372188-42.582841 49.51881-89.793072 62.850443-140.319839 13.478989-51.085492 18.215874-102.759385 14.078647-153.585981-2.517333-30.934546-8.278547-60.761875-17.20587-89.211834 115.725698 78.655408 177.444365 172.903955 183.656857 280.766568 5.671163 98.481965-36.396955 190.007495-72.687486 249.446235-20.546965 33.653471-42.177612 62.144362-61.046355 84.131119 0.345877-7.085372 0.330528-14.159488-0.061398-21.137413-2.206248-39.239699-15.859199-71.089082-39.4812-92.103698-5.313006-4.727675-12.69923-6.358825-19.512403-4.303003-6.809079 2.053776-12.06478 7.496741-13.879102 14.374382C616.914468 695.4544980000001 511.827061 775.385968 460.557374 803.927001c1.201361-58.325383-14.488992-122.168434-46.839795-190.334953-29.459962-62.073754-73.528644-129.240503-130.983193-199.636806-5.333472-6.534833-14.130835-9.125845-22.154579-6.531763-8.024767 2.596128-13.635555 9.849322-14.131859 18.270109C244.661256 456.03257 242.831584 480.613408 236.843196 505.031541z"  horiz-adv-x="1024" />

    
    <glyph glyph-name="fanhui" unicode="&#942216;" d="M257.024 893.952c10.24 0 20.47999999-3.584 28.672-10.752L795.648 410.624c15.87200001-14.336 15.872-38.4 0-52.736L285.696-114.68800001c-15.87200001-14.336-40.96-14.336-56.832 1e-8s-15.872 38.4 0 52.736L710.144 384l-481.28 445.952c-15.87200001 14.336-15.872 38.4 0 52.736 7.68 7.168 17.92 11.264 28.16 11.264z"  horiz-adv-x="1024" />

    
    <glyph glyph-name="zhujiaochaxunma" unicode="&#58908;" d="M199.8 603.1v-1.1l0.9 0.5-0.9 0.6z m0 0M199.8 169l2.7 1.5-2.7 1.5v-3z m0 0M330 172.6l114.2-114.2-38.1-38.1-152.2 152.3 152.2 152.3 38.1-38.2L330 172.6z m456.8 0L634.5 20.3l-38 38.1 114.2 114.2-114.2 114.1 38 38.2 152.3-152.3z m0 0M781-61H243c-58.1 0-105.4 47.3-105.4 105.4V725.6C137.5 783.7 184.8 831 243 831h377.2l266.3-235.8v-550.8c0-58.1-47.3-105.4-105.5-105.4zM243 774.6c-27 0-49-22-49-49v-681.1c0-27 22-49 49-49h538c27 0 49 22 49 49V569.8L598.7 774.6H243zM847.4 518.6H563V796.5h56.5V575h227.9z"  horiz-adv-x="1024" />

    
    <glyph glyph-name="shuqianbiaozhubiaojizhengshurenzhengxianxing" unicode="&#59798;" d="M199.111111 768v-768h625.777778v768H199.111111z m0 56.888889h625.777778a56.888889 56.888889 0 0 0 56.888889-56.888889v-768a56.888889 56.888889 0 0 0-56.888889-56.888889H199.111111a56.888889 56.888889 0 0 0-56.888889 56.888889v768a56.888889 56.888889 0 0 0 56.888889 56.888889z m490.780445-438.499556a56.888889 56.888889 0 0 1 40.163555-16.611555h7.196445A30.72 30.72 0 0 1 768 400.497778V768h-56.888889v-322.645333l-73.557333 73.557333a56.888889 56.888889 0 0 1-80.440889 0L483.555556 445.354667V768h-56.888889v-367.388444c0-17.038222 13.795556-30.833778 30.833777-30.833778h7.281778a56.888889 56.888889 0 0 1 40.220445 16.64l72.248889 72.192a28.444444 28.444444 0 0 0 40.192 0l72.448-72.248889z"  horiz-adv-x="1024" />

    
    <glyph glyph-name="zhiliang" unicode="&#59086;" d="M860.8 720L527.2 833.6c-4 1.6-9.6 2.4-15.2 2.4s-11.2-0.8-15.2-2.4L163.2 720c-8-2.4-15.2-12-15.2-20.8v-473.6c0-8.8 5.6-20 12-25.6l338.4-264c3.2-2.4 8-4 12-4 4.8 0 8.8 1.6 12 4l338.4 264c6.4 5.6 12 16.8 12 25.6V699.2c3.2 8.8-4 18.4-12 20.8z m-56-476L512 16 219.2 244V664L512 764 804.8 664v-420zM324 305.6l-21.6-47.2h66.4l21.6 47.2V458.4h139.2v-30.4H410.4v-117.6h64L400 259.2h105.6l58.4 44.8 60.8-46.4h96l-68 52h64.8v67.2c0 7.2-1.6 13.6-4 19.2s-6.4 12-11.2 16c-4.8 4.8-10.4 8-16.8 11.2-6.4 2.4-12.8 4-20 4h-66.4v30.4h122.4v45.6H599.2V528h-69.6v-24.8H390.4V536l331.2 10.4V592l-397.6-10.4v-276z m313.6 80.8c4 0 8-1.6 10.4-4 3.2-2.4 4-6.4 4-10.4v-60.8l-18.4 13.6h-43.2l12 9.6V384h-78.4v-38.4L476.8 312v74.4h160.8z"  horiz-adv-x="1024" />

    
    <glyph glyph-name="youwuyuqi" unicode="&#58905;" d="M512 771.578947C251.526737 771.578947 40.421053 560.419368 40.421053 300c0-260.473263 211.105684-471.578947 471.578947-471.578947 260.419368 0 471.578947 211.105684 471.578947 471.578947C983.578947 560.419368 772.419368 771.578947 512 771.578947zM512-140.158316C268.907789-140.158316 71.841684 56.907789 71.841684 300 71.841684 543.065263 268.907789 740.104421 512 740.104421c243.065263 0 440.131368-197.039158 440.131368-440.104421C952.131368 56.907789 755.065263-140.158316 512-140.158316zM391.868632 524.579368l-30.046316 0 0-130.155789 30.046316 0L391.868632 524.579368zM602.112 484.535579l-180.224 0 0-30.046316 180.224 0L602.112 484.535579 602.112 484.535579zM762.314105 484.535579l-70.117053 0 0-30.046316 50.068211 0c2.398316 0 9.997474 0 9.997474 0s0-6.898526 0-9.997474l0-80.114526L271.710316 364.377263l0 80.114526c0 2.856421 0 9.997474 0 9.997474s7.329684 0 10.024421 0l50.041263 0 0 30.046316-70.063158 0c-5.146947 0-20.048842 0-20.048842 0s0-14.066526 0-20.021895l0-400.437895c0-5.039158 0-20.021895 0-20.021895s13.985684 0 20.048842 0l376.993684 0 0 0 31.124211 0c16.491789 53.652211 58.799158 96.067368 112.478316 112.613053l0 97.630316-30.019368 0 0-76.961684c-46.08-20.156632-83.078737-57.155368-103.208421-103.235368L281.734737 74.100211c-2.506105 0-10.024421 0-10.024421 0s0 7.006316 0 10.024421l0 250.287158 510.598737 0 0 130.155789c0 5.146947 0 20.021895 0 20.021895S768.215579 484.535579 762.314105 484.535579zM662.177684 524.579368l-30.019368 0 0-130.155789 30.019368 0L662.177684 524.579368z"  horiz-adv-x="1024" />

    
    <glyph glyph-name="dingdanhao" unicode="&#58898;" d="M457.6 382.4v-38.4c0 3.2-3.2 9.6-9.6 17.6l-129.6 203.2h-41.6v-264h33.6V484.8v38.4c3.2-6.4 6.4-9.6 9.6-17.6l134.4-206.4H496V563.2h-33.6v-182.4h-4.8z m171.2 108.8c-30.4 0-51.2-9.6-72-27.2-17.6-17.6-27.2-41.6-27.2-72 0-27.2 6.4-51.2 24-68.8 17.6-17.6 38.4-27.2 68.8-27.2 27.2 0 51.2 9.6 68.8 27.2 17.6 17.6 24 41.6 24 72s-6.4 54.4-24 72c-11.2 14.4-35.2 24-62.4 24z m41.6-150.4c-9.6-14.4-24-17.6-44.8-17.6-17.6 0-33.6 6.4-44.8 17.6-9.6 14.4-17.6 30.4-17.6 51.2s6.4 41.6 17.6 51.2c9.6 14.4 24 20.8 44.8 20.8s33.6-6.4 44.8-17.6c9.6-14.4 14.4-30.4 14.4-51.2-1.6-24-4.8-44.8-14.4-54.4z m126.4 425.6H241.6c-51.2 0-92.8-41.6-92.8-92.8v-467.2c0-51.2 41.6-92.8 92.8-92.8h560c51.2 0 92.8 41.6 92.8 92.8V673.6c-1.6 51.2-46.4 92.8-97.6 92.8z m48-566.4c0-20.8-17.6-41.6-41.6-41.6H233.6c-20.8 0-41.6 17.6-41.6 41.6v480c0 20.8 17.6 41.6 41.6 41.6h572.8c20.8 0 41.6-17.6 41.6-41.6v-480h-3.2z m-65.6 137.6c-6.4 0-9.6-3.2-17.6-6.4-3.2-3.2-6.4-9.6-6.4-17.6 0-6.4 3.2-9.6 6.4-14.4 3.2-3.2 9.6-6.4 17.6-6.4 6.4 0 9.6 3.2 17.6 6.4 3.2 3.2 6.4 9.6 6.4 14.4 0 6.4-3.2 9.6-6.4 14.4-3.2 9.6-9.6 9.6-17.6 9.6z"  horiz-adv-x="1024" />

    
    <glyph glyph-name="yanzhengmamima" unicode="&#58897;" d="M554.667 213.333V128H640a42.667 42.667 0 0 0 0-85.333h-85.333V0a42.667 42.667 0 0 0-85.334 0V386.133c-144.725 14.848-256 103.766-256 211.2 0 117.803 133.718 213.334 298.667 213.334s298.667-95.531 298.667-213.334c0-107.477-111.275-196.394-256-211.2v-87.466H640a42.667 42.667 0 0 0 0-85.334h-85.333zM512 512a85.333 85.333 0 1 1 0 170.667A85.333 85.333 0 0 1 512 512z"  horiz-adv-x="1024" />

    
    <glyph glyph-name="shoujihao" unicode="&#58925;" d="M676.160741-127.984301H347.715625A205.585347 205.585347 0 0 0 136.533333 71.048525V696.814282A205.585347 205.585347 0 0 0 347.715625 895.847108h328.445116A205.517092 205.517092 0 0 0 887.343033 696.882537v-625.560991a205.517092 205.517092 0 0 0-211.182292-199.305847zM347.715625 810.527824A116.034226 116.034226 0 0 1 230.725823 696.746026v-625.492735a116.034226 116.034226 0 0 1 117.331079-113.713542h328.445116a116.034226 116.034226 0 0 1 117.33108 113.713542V696.814282a116.034226 116.034226 0 0 1-117.33108 113.713542zM441.020794 104.425429A70.917389 70.917389 0 1 1 511.938183 175.342818a70.917389 70.917389 0 0 1-70.917389-70.917389z"  horiz-adv-x="1024" />

    
    <glyph glyph-name="guanxiaobaotubiao16" unicode="&#943871;" d="M640 567.4666669999999c0-12.8-8.533333-21.333333-21.333333-21.333333l-213.333333 0C392.533333 546.133333 384 554.666667 384 567.4666669999999L384 742.4C384 755.2 392.533333 768 405.333333 768l213.333333 0C631.466667 768 640 755.2 640 742.4L640 567.4666669999999 640 567.4666669999999zM640 567.4666669999999M640 25.600000000000023c0-12.8-8.533333-21.333333-21.333333-21.333333l-213.333333 0C392.533333 0 384 12.799999999999955 384 25.600000000000023l0 174.933333c0 12.8 8.533333 21.333333 21.333333 21.333333l213.333333 0c12.8 0 21.333333-8.533333 21.333333-21.333333L640 25.600000000000023 640 25.600000000000023zM640 25.600000000000023M1024 25.600000000000023c0-12.8-8.533333-21.333333-21.333333-21.333333l-213.333333 0c-12.8 0-21.333333 8.533333-21.333333 21.333333l0 174.933333c0 12.8 8.533333 21.333333 21.333333 21.333333l213.333333 0c12.8 0 21.333333-8.533333 21.333333-21.333333L1024 25.600000000000023 1024 25.600000000000023zM1024 25.600000000000023M256 25.600000000000023C256 12.799999999999955 247.466667 0 234.666667 0l-213.333333 0C8.533333 0 0 12.799999999999955 0 25.600000000000023l0 174.933333c0 12.8 8.533333 21.333333 21.333333 21.333333l213.333333 0C247.466667 221.866667 256 213.33333300000004 256 200.53333299999997L256 25.600000000000023 256 25.600000000000023zM256 25.600000000000023M550.4 448L550.4 512l-76.8 0 0-64L93.866667 448l0-81.066667 0-4.266667L93.866667 256l72.533333 0 0 106.666667 307.2 0L473.6 256l76.8 0 0 106.666667L853.333333 362.66666699999996 853.333333 256l76.8 0 0 106.666667 0 4.266667 0 81.066667L550.4 448zM550.4 448"  horiz-adv-x="1024" />

    
    <glyph glyph-name="ren" unicode="&#942114;" d="M510.238 877.242c-157.525 0-285.671-128.151-285.671-285.677 0-114.08 67.367-212.466 164.27-258.22-179.148-52.611-310.438-218.241-310.438-414.179 0-12.47 10.106-22.566 22.566-22.566 12.46 0 22.566 10.097 22.566 22.566 0 213.236 173.495 386.723 386.706 386.723 157.525 0 285.682 128.151 285.682 285.677s-128.157 285.677-285.682 285.677v0zM510.238 351.02200000000005c-132.642 0-240.538 107.913-240.538 240.543 0 132.638 107.895 240.543 240.538 240.543 132.647 0 240.549-107.906 240.549-240.543 0-132.638-107.895-240.543-240.549-240.543v0zM510.238 351.02200000000005zM772.185 262.53999999999996c-9.921 7.559-24.066 5.686-31.623-4.231-7.579-9.916-5.686-24.062 4.228-31.644 96.703-73.893 152.149-185.978 152.149-307.492 0-12.475 10.111-22.572 22.567-22.572 12.47 0 22.566 10.097 22.566 22.572 0 135.707-61.924 260.859-169.888 343.369v0zM772.185 262.53999999999996z"  horiz-adv-x="1024" />

    
    <glyph glyph-name="dingzhifuwu" unicode="&#59411;" d="M999 240.6h-10v44.2c39.8 40.2 35.2 112 34.4 121.2v75.2c0 24.2-19.6 43.8-43.8 43.8h-1.6c-7.6 0-14.8-2-21.2-5.4-8 10.2-20.4 16.6-34.4 16.6h-1.6c-7.4 0-14.4-1.8-20.6-5.2-8 9.6-20.2 15.6-33.6 15.6h-1.6c-6.2 0-12-1.2-17.4-3.6-7.8 11.8-21.4 19.8-36.6 19.8h-1.6c-24.2 0-43.8-19.6-43.8-43.8v-42.2c-17.6 1.8-31.4-1.4-41.8-10.2-22.6-19-20.4-56.4-18.2-92.8 3-49.6 47.2-91 64.2-105.4v-27.8h-8.4c-9 0-16.2-7.2-16.2-16.2v-332.2c0-9 7.2-16.2 16.2-16.2h238c9 0 16.2 7.2 16.2 16.2V224.4c-0.4 9-7.6 16.2-16.6 16.2z m-261.4 135c-1.6 25.6-3.4 57.6 6.6 66 3.8 3.2 11 4 21 2.4v-22c0-9 7.2-16.2 16.2-16.2s16.2 7.2 16.2 16.2v96.8c0 6.4 5.2 11.6 11.6 11.6h1.6c6.4 0 11.6-5.2 11.6-11.6V456.6c0-9 7.2-16.2 16.2-16.2s16.2 7.2 16.2 16.2v51.6c2 3.8 5.8 6 10.2 6h1.6c6.4 0 11.6-5.2 11.6-11.6v-46.2c0-9 7.2-16.2 16.2-16.2s16.2 7.2 16.2 16.2v40.8c2 3.8 5.8 6.4 10.4 6.4h1.6c6.4 0 11.6-5.2 11.6-11.6V448.4c0-9 7.2-16.2 16.2-16.2s16.2 7.2 16.2 16.2v32.4c0 6.4 5.2 11.6 11.6 11.6h1.6c6.4 0 11.6-5.2 11.6-11.6V403.4c1.8-19.4 0.4-74.8-28.8-99.6a16.28 16.28 0 0 1-5.8-12.4v-51.2h-155V275.8c0 5.2-2.4 10-6.6 13-0.6 0.6-55 41.8-57.6 86.8z m245.2-467.2H777V125.2h205.8v-216.8z m0 249H777v50.8h205.6v-50.8zM686.2 629.2l74-31.2c5.4-2.2 11-3.4 16.6-3.4 5.4 0 10.8 1 16 3.2 10.6 4.2 18.8 12.4 23.2 22.8l9 21.2c4.4 10.4 4.6 22 0.2 32.6-4.2 10.6-12.4 18.8-22.8 23.2l-87.8 36.8 4 14.6c0 0.2 0.2 0.4 0.2 0.6 2.8 11.4 0.8 23.2-5.4 33.2-6.2 10-15.8 17-27.2 19.6l-1.6 0.4c-7.4 1.8-15 1.6-21.8-0.4-5.4 11.6-16 20.8-29.6 24l-1.6 0.4c-7.2 1.8-14.4 1.6-21.2-0.2-0.6 1.2-1.2 2.2-1.8 3.2-6.2 10-15.8 17-27.2 19.6l-1.6 0.4c-6 1.4-12 1.6-17.8 0.6-1 2.8-2.4 5.4-3.8 8-6.2 10-15.8 17-27.2 19.6l-1.6 0.4c-11.4 2.8-23.2 0.8-33.2-5.4-10-6.2-16.8-15.6-19.6-27l-2.8-10.6-114.2 48.4h-0.2c-0.4 0.2-0.6 0.2-1 0.4-0.2 0-0.4 0.2-0.6 0.2-0.2 0-0.6 0.2-0.8 0.2-0.2 0-0.6 0.2-0.8 0.2-0.2 0-0.4 0-0.6 0.2-0.4 0-0.6 0-1 0.2h-0.2l-108.2 7c-6.8 0.4-13-3.4-15.8-9.6-2.8-6.2-1.4-13.4 3.4-18.2l76-74.2 0.2-0.2c0.4-0.4 0.6-0.6 1-0.8 0.2-0.2 0.4-0.2 0.6-0.4 0.2-0.2 0.4-0.2 0.6-0.4h0.2c0.2-0.2 0.6-0.4 0.8-0.6 2-1.4 4.2-2.6 6.4-3.4l69.2-29.2c-5.2-15-8.2-32.8-11-48.8-8.8-50.6 27.4-103.2 39.4-119.2V513.8H404c-9 0-16.2-7.2-16.2-16.2v-605.2c0-9 7.2-16.2 16.2-16.2h238c9 0 16.2 7.2 16.2 16.2v404c0 9-7.2 16.2-16.2 16.2s-16.2-7.2-16.2-16.2v-388H420.2V398.2H626v-45c0-9 7.2-16.2 16.2-16.2s16.2 7.2 16.2 16.2v144.2c0 9-7.2 16.2-16.2 16.2h-6.8l0.2 41.8c27.2 18 42.4 49.4 50.6 73.8z m85.8 46.2l17.8-7.4c2.6-1 4.4-3 5.6-5.6 1-2.6 1-5.4 0-7.8l-9-21.2c-1-2.6-3-4.4-5.6-5.6-2.6-1-5.4-1-7.8 0l-18.8 8 17.8 39.6z m-77.2-11.8l11 39.8 36.4-15.2-18.2-39.6-29.6 12.6c0.2 0.8 0.4 1.6 0.4 2.4z m-378.4 165.2l-28.8 28 40.8-2.6-12-25.4z m26.6-19.4l18.4 38.6 103.6-43.6-11.2-42-110.8 47z m282.8-379H420.2v50.8H626l-0.2-50.8z m-13.8 148.6c-5.4-2.8-8.8-8.2-8.8-14.4l-0.2-49.4h-153.2v77.4c0 3.8-1.4 7.4-3.8 10.4-0.4 0.6-43.8 53.2-36.2 97.6 2.4 14 5.2 29.6 9 41.8l29.2-12.4c1.8-4.8 5.6-8.6 11-10 8.6-2.4 17.4 2.8 19.8 11.4l28.8 107.2c0 0.2 0 0.4 0.2 0.4 0.8 3 2.6 5.6 5.2 7.2 2.6 1.6 5.8 2.2 8.8 1.4l1.6-0.4c3-0.8 5.6-2.6 7.2-5.2 1.6-2.6 2.2-5.8 1.4-8.8l-1.6-7-19-66c-2.4-8.6 2.4-17.6 11-20 1.4-0.4 3-0.6 4.4-0.6 7 0 13.4 4.6 15.6 11.6l18.4 63.8c2.8 3.4 7.2 4.8 11.4 3.8l1.6-0.4c3-0.8 5.6-2.6 7.2-5.2 1.6-2.6 2-5.6 1.4-8.6l-17-57.2c-2.6-8.6 2.4-17.6 11-20 1.6-0.4 3-0.6 4.6-0.6 7 0 13.4 4.6 15.4 11.6l15.6 53c2.8 3.8 7.4 5.6 12 4.4l1.6-0.4c6.2-1.4 10-7.8 8.6-14l-2.4-10.4-13.8-43.8c-2.6-8.6 2-17.6 10.6-20.2 1.6-0.6 3.2-0.8 4.8-0.8 6.8 0 13.2 4.4 15.4 11.4l14 44.4c0 0.2 0 0.4 0.2 0.6 0 0.2 0.2 0.4 0.2 0.6 1.4 6.2 7.8 10 14 8.6l1.6-0.4c6.2-1.4 10-7.6 8.6-13.8l-23.8-86.4c-0.2-0.6-0.4-1.4-0.4-2-0.2-0.8-10.4-69.6-51.2-90.2zM319.6 316.8V391.8c0 24.2-19.6 43.8-43.8 43.8H274c-7.6 0-14.8-2-21.2-5.4-8 10.2-20.4 16.6-34.4 16.6h-1.6c-7.4 0-14.4-1.8-20.6-5.2-8 9.6-20.2 15.6-33.6 15.6h-1.6c-6.2 0-12-1.2-17.4-3.6-7.8 11.8-21.4 19.8-36.6 19.8h-1.6c-24.2 0-43.8-19.6-43.8-43.8v-42.2c-17.6 2-31.4-1.4-41.8-10.2-22.6-19-20.4-56.4-18.2-92.8 3-49.6 47.2-91 64.2-105.4v-27.8h-8.4c-9 0-16.2-7.2-16.2-16.2V-108.2c0-9 7.2-16.2 16.2-16.2h238.2c9 0 16.2 7.2 16.2 16.2V135c0 9-7.2 16.2-16.2 16.2h-10v44.2c39.2 40.4 34.6 112.2 34 121.4zM279-91.6H73.2v127.8H279v-127.8z m0 160H73.2v50.8H278.8v-50.8z m-20.6 146.6a16.28 16.28 0 0 1-5.8-12.4v-51.2H97.8v35.6c0 5.2-2.4 10-6.6 13-15.2 11.4-55.4 49-57.6 86.6-1.6 25.6-3.4 57.6 6.6 66 3.8 3.2 11 4 21 2.4v-22c0-9 7.2-16.2 16.2-16.2s16.2 7.2 16.2 16.2V429.8c0 6.4 5.2 11.6 11.6 11.6h1.6c6.4 0 11.6-5.2 11.6-11.6V367.6c0-9 7.2-16.2 16.2-16.2s16.2 7.2 16.2 16.2v51.6c2 3.8 5.8 6 10.2 6h1.6c6.4 0 11.6-5.2 11.6-11.6v-46.2c0-9 7.2-16.2 16.2-16.2s16.2 7.2 16.2 16.2v40.8c2 3.8 5.8 6.4 10.4 6.4h1.6c6.4 0 11.6-5.2 11.6-11.6V359.4c0-9 7.2-16.2 16.2-16.2s16.2 7.2 16.2 16.2V391.8c0 6.4 5.2 11.6 11.6 11.6h1.6c6.4 0 11.6-5.2 11.6-11.6V314.4c1.8-19.2 0.2-74.8-29-99.4z"  horiz-adv-x="1024" />

    
    <glyph glyph-name="yangpin" unicode="&#942626;" d="M1002.624 498.304c-17.28 13.056-44.16 9.344-57.088-7.808l-14.592-19.072c-1.28 6.656-2.688 13.312-4.224 19.84C875.52 704.384 678.784 854.528 458.752 848.256c-32-0.896-64.128-5.12-95.488-12.544C112.384 776.064-43.136 524.8 16.64 275.456c51.072-213.248 247.808-363.392 467.968-357.12 32 0.896 64.128 5.12 95.488 12.544 87.04 20.608 166.272 66.432 227.584 131.072l2.176 1.92c2.048 2.048 3.072 4.096 2.944 4.096l2.048 2.816c2.432 4.096 5.12 10.752 4.864 18.816-0.512 19.968-17.408 35.84-37.504 35.2-4.992-0.128-9.856-1.28-14.336-3.456l-2.304 1.408-9.728-10.24c-52.48-55.04-119.04-93.44-192.256-110.72-26.24-6.272-53.12-9.728-79.872-10.496-183.936-5.248-348.544 120.32-391.296 298.752-50.048 208.768 80 418.944 289.792 468.736 26.24 6.272 53.12 9.728 79.872 10.496 183.936 5.248 348.544-120.32 391.296-298.752 0.512-2.432 1.152-4.864 1.664-7.296l-16.384 12.288c-17.28 13.056-44.16 9.344-57.088-7.808-13.568-17.792-9.984-43.136 7.808-56.576l93.184-70.144c0.128-0.128 0.384-0.256 0.512-0.384l4.224-3.072h0.768c7.68-3.968 18.56-5.248 24.704-4.224 11.008 1.408 20.736 6.912 27.52 15.744l70.528 92.672c13.184 17.792 9.6 43.136-8.192 56.576z m0 0M224.128 532.48H279.04v84.48h60.544v-84.48h45.312v-62.464h-45.312V435.2c25.984-16.896 47.104-32.128 63.488-45.824l-34.304-53.504c-9.6 10.24-19.2 19.84-29.056 29.056v-217.088H279.04V343.93600000000004c-14.208-36.608-29.44-68.352-45.824-95.488-3.84 20.736-9.856 49.92-18.176 87.808 23.808 37.76 43.392 82.176 58.752 133.632h-49.664V532.48z m155.136-226.176H500.48V363.52h-92.544v57.216H500.48V476.16h-101.632v57.216H464.64c-12.032 19.584-24.832 38.528-38.144 56.832l46.336 30.976c16.512-20.096 33.92-42.368 51.968-66.816l-30.72-20.992h57.984c19.2 30.848 36.096 60.032 50.56 87.296l56.832-25.344c-13.568-21.76-26.752-42.496-39.552-62.08h54.4V476.16h-106.88v-55.296H665.6V363.52h-98.304v-57.216h125.056v-57.216h-125.056v-101.12H500.48v101.12h-121.216v57.216z"  horiz-adv-x="1024" />

    
    <glyph glyph-name="chousongjiandanwei" unicode="&#945930;" d="M512-128C229.248-128 0 101.24800000000005 0 384S229.248 896 512 896s512-229.248 512-512-229.248-512-512-512z m174.250667 624.597333V640H256v-573.653333H829.610667V496.64h-143.36zM337.493333 516.266667h82.218667v-81.536H337.536V516.266667z m164.394667-162.432h82.218667v-82.858667h-82.218667v82.858667z m0 163.114666h82.218667v-80.938666h-82.218667V516.949333z m-164.394667-163.114666h82.218667v-81.578667H337.536v81.578667z"  horiz-adv-x="1024" />

    
    <glyph glyph-name="feiyongyugu" unicode="&#942199;" d="M924.7 558.78A450.34 450.34 0 1 1 960 384a447.55 447.55 0 0 1-35.3 174.78zM511 7c-207.88 0-377 169.12-377 377s169.12 377 377 377 377-169.12 377-377-169.12-377-377-377zM547 410h113v72h-91.88l81.45 103.57-56.6 44.51L511 525.8399999999999l-81.97 104.24-56.6-44.51L453.88 482H362v-72h113v-51H336v-72h139v-127h72V287h139v72H547v51z"  horiz-adv-x="1024" />

    
    <glyph glyph-name="shipin" unicode="&#942097;" d="M880.226263-119.06585900000005H176.019394C78.855758-118.94949499999996 0.116364-40.21010100000001 0 56.95353499999999V710.865455C0.064646 808.054949 78.829899 886.833131 176.019394 886.949495H880.226263c97.176566-0.116364 175.91596-78.855758 176.019394-176.019394v-653.89899c-0.064646-97.202424-78.81697-175.980606-176.019394-176.09697zM176.019394 836.641616c-69.404444-0.116364-125.633939-56.371717-125.711515-125.776161v-653.89899c0.077576-69.391515 56.32-125.608081 125.711515-125.646869H880.226263c69.378586 0.077576 125.595152 56.268283 125.711515 125.646869V710.865455c-0.116364 69.378586-56.332929 125.595152-125.711515 125.711515H176.019394v0.064646z m0 0M1005.937778 585.153939h-100.615758c-8.985859 0-17.286465 4.796768-21.785858 12.580202a25.112566 25.112566 0 0 0 0 25.147475c4.486465 7.783434 12.8 12.580202 21.785858 12.580202h100.615758c8.985859 0 17.299394-4.796768 21.785858-12.580202a25.112566 25.112566 0 0 0 0-25.147475c-4.486465-7.783434-12.8-12.580202-21.785858-12.580202z m0-301.795555h-100.615758c-9.283232-0.478384-18.075152 4.20202-22.85899 12.166464a25.160404 25.160404 0 0 0 22.85899 38.076768h100.615758c13.89899 0 25.225051-11.248485 25.22505-25.160404a25.225051 25.225051 0 0 0-7.408485-17.764848 25.116444 25.116444 0 0 0-17.816565-7.31798z m0 150.85899h-100.615758c-9.283232-0.478384-18.075152 4.20202-22.85899 12.166464a25.160404 25.160404 0 0 0 0 25.897374c4.783838 7.977374 13.575758 12.657778 22.85899 12.166465h100.615758c13.89899 0 25.225051-11.248485 25.22505-25.082829 0-6.684444-2.663434-13.097374-7.395555-17.816565a25.213414 25.213414 0 0 0-17.829495-7.330909z m0-301.795556h-100.615758c-13.911919 0-25.186263 11.274343-25.186262 25.186263s11.274343 25.186263 25.186262 25.186262h100.615758a25.18497 25.18497 0 1 0 0-50.372525z m-592.006465 25.160404c-34.624646 0-61.827879 30.913939-61.827879 70.503435v311.725252c0 39.524848 26.88 70.438788 61.297778 70.438788 11.326061 0 22.703838-3.503838 33.09899-10.201212l238.506667-155.966061c19.393939-12.515556 30.978586-34.624646 30.978586-59.177373 0-25.354343-12.050101-48.265051-32.297374-61.362425L447.301818 167.77050499999996a62.267475 62.267475 0 0 0-33.370505-10.188283z m-0.530101 402.411313c-5.223434 0-11.054545-8.274747-11.054545-20.130909V228.20201999999995c0-12.114747 5.960404-20.260202 11.52-20.260202 2.094545 0.142222 4.111515 0.853333 5.831111 2.055758L656.08404 365.76969699999995a23.027071 23.027071 0 0 1 9.541819 19.264646c0 7.343838-2.973737 13.705051-8.080808 17.01495L419.038384 557.950707a10.982141 10.982141 0 0 1-5.637172 2.042828z m0 0"  horiz-adv-x="1056" />

    
    <glyph glyph-name="dianhua" unicode="&#60098;" d="M731.5 444.3c0-21.5 14.3-35.9 35.9-35.9 21.5 0 35.9 14.3 35.9 35.9C803 563 706.8 659.2 588 659.6c-21.5 0-35.9-14.3-35.9-35.9s14.4-35.9 35.9-35.9c79.2-0.1 143.3-64.3 143.5-143.5z m143.6 0c0-21.5 14.3-35.9 35.9-35.9s35.9 14.3 35.9 35.9c0 197.3-161.5 358.8-358.8 358.8-21.5 0-35.9-14.4-35.9-35.9s14.4-35.9 35.9-35.9c157.8 0.1 287-129.1 287-287zM390.7 569.9c39.5 39.4 43.1 100.5 7.2 143.5L286.7 853.3c-35.9 46.6-104 53.8-150.7 18-3.6-3.6-7.1-3.6-7.1-7.2L32 767.2c-93.3-93.3 39.5-344.4 279.9-584.8C552.2-58 799.7-187.2 893-97.5l96.9 96.9c43.1 43.1 43.1 111.2 0 150.7l-7.1 7.2-140 111.2c-43 35.9-104 32.3-143.5-7.2l-61-61c-64.6 39.5-122 82.6-172.3 132.8-50.2 50.3-93.2 107.7-132.7 172.3l57.4 64.5z m-50.2 96.9c10.8-14.4 10.8-35.9-3.6-46.7L258 537.6c-11.2-11.4-14-28.6-7.1-43.1 42.3-77.7 95.5-149 157.9-211.6 62.7-62.4 134-115.6 211.6-157.9 14.4-6.9 31.6-4 43.1 7.2l82.5 82.5c14.4 14.3 32.3 14.3 46.7 3.6l139.9-114.8s3.6 0 3.6-3.6c13.9-13.2 14.4-35.1 1.2-49l-1.2-1.2-96.9-96.9c-46.6-46.6-269 71.8-480.7 279.9-211.8 208.1-326.7 434.1-280 480.7L179 813.9c14.4 10.8 39.5 10.8 50.3-7.2l111.2-139.9z"  horiz-adv-x="1024" />

    
    <glyph glyph-name="04-lingyufenlei" unicode="&#942472;" d="M268.8 896H179.2C83.2 896 0 812.8 0 716.8v-89.6C0 524.8 83.2 448 179.2 448h89.6C371.2 448 448 524.8 448 627.2V716.8C448 812.8 371.2 896 268.8 896z m96-268.8c0-51.2-44.8-96-96-96H179.2c-51.2 0-96 38.4-96 96V716.8c0 51.2 44.8 96 96 96h89.6c51.2 0 96-44.8 96-96v-89.6z m307.2-121.6c32-32 83.2-51.2 128-51.2s89.6 19.2 128 51.2l38.4 38.4c70.4 70.4 70.4 185.6 0 249.6l-38.4 38.4c-32 32-83.2 51.2-128 51.2s-89.6-19.2-128-51.2l-38.4-32c-70.4-70.4-70.4-185.6 0-249.6l38.4-44.8z m25.6 230.4l38.4 38.4c19.2 19.2 38.4 25.6 64 25.6s44.8-6.4 64-25.6l38.4-38.4c32-32 32-89.6 0-128l-38.4-38.4c-19.2-19.2-38.4-25.6-64-25.6s-44.8 6.4-64 25.6l-38.4 38.4c-38.4 38.4-38.4 89.6 0 128zM268.8 320H179.2C83.2 320 0 243.20000000000005 0 140.79999999999995v-89.6C0-44.799999999999955 83.2-128 179.2-128h89.6C371.2-128 448-44.799999999999955 448 51.200000000000045v89.6C448 243.20000000000005 371.2 320 268.8 320z m96-268.8c0-51.2-44.8-96-96-96H179.2c-51.2 0-96 44.8-96 96v89.6c0 51.2 44.8 96 96 96h89.6c51.2 0 96-44.8 96-96v-89.6zM844.8 320h-89.6C652.8 320 576 243.20000000000005 576 140.79999999999995v-89.6c0-96 83.2-179.2 179.2-179.2h89.6c96 0 179.2 83.2 179.2 179.2v89.6c0 102.4-83.2 179.2-179.2 179.2z m96-268.8c0-51.2-44.8-96-96-96h-89.6c-51.2 0-96 44.8-96 96v89.6c0 51.2 44.8 96 96 96h89.6c51.2 0 96-44.8 96-96v-89.6z"  horiz-adv-x="1024" />

    
    <glyph glyph-name="jianyanleixingweihu" unicode="&#59158;" d="M940.697236 762.070559L529.502515 893.60179a70.235123 70.235123 0 0 1-36.394563 0L82.551732 765.901566a26.817047 26.817047 0 0 1-18.516532-27.455548v-538.256443a42.141074 42.141074 0 0 1 14.685526-28.73255L495.661956-128h30.648054l416.94123 299.457025a42.141074 42.141074 0 0 1 14.685526 28.73255V738.446018a26.178546 26.178546 0 0 1-17.23953 23.624541zM466.929406 197.63557H309.858131V354.706846h157.071275z m0 231.775907H309.858131V586.482752h157.071275z m245.184429-231.775907H555.04256V354.706846h157.071275z m0 231.775907H555.04256V586.482752h157.071275z"  horiz-adv-x="1024" />

    
    <glyph glyph-name="gongzuoxingzhi" unicode="&#943206;" d="M834.541989-35.775120000000015L318.651231-35.775120000000015c-71.225839 0-128.973201 57.746338-128.973201 128.973201L189.67803 544.601727c0 71.225839 57.747362 128.973201 128.973201 128.973201l515.890758 0c71.225839 0 128.973201-57.747362 128.973201-128.973201l0-451.403646C963.51519 21.97121800000002 905.767829-35.775120000000015 834.541989-35.775120000000015L834.541989-35.775120000000015zM899.028078 544.601727c0 35.628782-28.857307 64.486089-64.486089 64.486089L318.651231 609.087816c-35.628782 0-64.486089-28.857307-64.486089-64.486089l0-451.403646c0-35.628782 28.857307-64.487112 64.486089-64.487112l515.890758 0c35.628782 0 64.486089 28.858331 64.486089 64.487112L899.028078 544.601727 899.028078 544.601727zM318.651231 189.927726l515.890758 0 0-64.486089L318.651231 125.44163700000001 318.651231 189.927726 318.651231 189.927726zM318.651231 351.14141299999994l386.916533 0 0-64.487112-386.916533 0L318.651231 351.14141299999994 318.651231 351.14141299999994zM318.651231 512.3581710000001l193.460313 0 0-64.487112L318.651231 447.871059 318.651231 512.3581710000001 318.651231 512.3581710000001zM705.567765 738.061017L189.67803 738.061017c-35.597058 0-64.486089-28.857307-64.486089-64.486089l0-451.403646c0-23.796866 13.058906-44.367125 32.242533-55.55638l0-68.839399c-55.523633 14.377998-96.729645 64.358171-96.729645 124.395779L60.704829 673.574928c0 71.225839 57.747362 128.973201 128.973201 128.973201l515.889735 0c60.037608 0 110.013687-41.206012 124.428526-96.729645l-68.872146 0C749.935913 725.002111 729.364631 738.061017 705.567765 738.061017L705.567765 738.061017zM705.567765 738.061017"  horiz-adv-x="1024" />

    


  </font>
</defs>
</svg>
